<?xml version="1.0" encoding="UTF-8"?><svg id="Calque_1" xmlns="http://www.w3.org/2000/svg" viewBox="0 0 1337.73 1194.93"><path d="m760.88,1078.64h-47.45V465.87c-67.45,67.46-134.73,134.76-203.11,203.15-36.14-37.92-72.28-75.85-108.42-113.77.04-19.82.07-39.65.07-59.48v-3.47c35.78,35.79,71.52,71.53,107.25,107.28,69.58-67.8,139.15-135.59,208.73-203.39,12.71.05,25.41.07,38.11.07.92,0,3.9,0,4.82,0v682.38Z"/><path d="m802.49,759.69v-4.51c0-26.66-.05-53.33.07-79.99.01-2.68.61-5.56,1.71-8,15.11-33.51,25.14-68.5,28.87-105.02,9.56-93.79-13.45-178.99-70.64-254.05-55.2-72.44-128.14-117.79-217.02-137.51-24.98-5.54-50.29-8.16-75.87-8.37-.83,0-1.65-.09-2.81-.16v-45.63c8.29,0,16.62-.42,24.89.08,26.88,1.62,53.43,5.6,79.52,12.35,65.64,16.98,123.97,47.8,174.58,92.98,51.76,46.21,89.56,101.94,112.96,167.32,10.59,29.6,17.4,60.06,20.7,91.36,2.82,26.73,3.21,53.45.54,80.17-7.24,72.57-32.5,138.33-75.22,197.4-.33.45-.66.91-1.05,1.3-.15.15-.49.13-1.23.29Z"/><path d="m671.86,809.4c0,18.65.07,36.36-.14,54.07-.02,1.31-1.72,3.01-3.07,3.84-27.24,16.8-56.03,30.32-86.4,40.42-33.3,11.08-67.4,18.52-102.49,20.2-25.06,1.2-50.18,1.09-75.27,1.56-.67.01-1.34-.14-2.25-.25v-230.44h47.01v184.19c82.12-.78,155.86-25.02,222.61-73.59Z"/></svg>